<?xml version="1.0" encoding="utf-8"?>
<svg xmlns="http://www.w3.org/2000/svg" style="margin: auto; background: rgb(241, 242, 243); display: block; shape-rendering: auto; animation-play-state: running; animation-delay: 0s;" width="290" height="250" preserveAspectRatio="xMidYMid">
<style type="text/css" style="animation-play-state: running; animation-delay: 0s;">
  text {
    text-anchor: middle; font-size: 48px; opacity: 0;
  }
</style>
<g transform="translate(145,125)" style="animation-play-state: running; animation-delay: 0s;">
  <g transform="translate(0,0)" style="animation-play-state: running; animation-delay: 0s;"><g class="path" style="transform-origin: -58.485px -4.03286px; animation: 1s linear -0.5775s infinite normal forwards running breath-9a2c57a6-5f76-494a-9614-7c58de73dac9; transform: scale(0.91);"><path d="M11.62-1.73L11.62-1.73L11.62-1.73Q10.99-0.91 9.91-0.24L9.91-0.24L9.91-0.24Q8.83 0.43 7.10 0.43L7.10 0.43L7.10 0.43Q5.38 0.43 4.18-0.67L4.18-0.67L4.18-0.67Q2.98-1.78 2.98-3.79L2.98-3.79L2.98-3.79Q2.98-4.18 3.07-5.04L3.07-5.04L6.19-22.32L6.19-22.32Q7.06-27.07 8.57-29.09L8.57-29.09L8.57-29.09Q10.08-31.10 12.58-31.10L12.58-31.10L12.58-31.10Q14.30-31.10 15.43-29.81L15.43-29.81L15.43-29.81Q16.56-28.51 16.56-25.87L16.56-25.87L16.56-25.87Q16.56-23.23 14.52-18.34L14.52-18.34L14.52-18.34Q12.48-13.44 12.48-11.18L12.48-11.18L11.62-11.18L11.62-11.18Q11.62-13.73 13.63-18.46L13.63-18.46L13.63-18.46Q15.65-23.18 15.65-26.02L15.65-26.02L15.65-26.02Q15.65-27.74 14.86-28.99L14.86-28.99L14.86-28.99Q14.06-30.24 12.91-30.24L12.91-30.24L12.91-30.24Q12.86-28.99 11.26-19.03L11.26-19.03L11.26-19.03Q9.65-9.07 8.06-0.53L8.06-0.53L8.06-0.53Q9.41-0.53 10.56-1.92L10.56-1.92L10.56-1.92Q11.71-3.31 12.19-4.70L12.19-4.70L12.72-6.14L13.58-5.76L13.58-5.76Q13.44-5.09 12.84-3.82L12.84-3.82L12.84-3.82Q12.24-2.54 11.62-1.73" fill="#0b1108" stroke="none" stroke-width="none" transform="translate(-68.25502967834473,11.302151746749878)" style="fill: rgb(8, 17, 17); animation-play-state: running; animation-delay: 0s;"></path></g><g class="path" style="transform-origin: -42.6701px 2.18213px; animation: 1s linear -0.495s infinite normal forwards running breath-9a2c57a6-5f76-494a-9614-7c58de73dac9; transform: scale(0.91);"><path d="M23.71 0.43L23.71 0.43Q20.02 0.43 18.10-1.42L18.10-1.42L18.10-1.42Q16.18-3.26 16.18-6.07L16.18-6.07L16.18-6.07Q16.18-8.88 16.68-10.87L16.68-10.87L16.68-10.87Q17.18-12.86 18.34-14.71L18.34-14.71L18.34-14.71Q19.49-16.56 21.82-17.62L21.82-17.62L21.82-17.62Q24.14-18.67 27.62-18.67L27.62-18.67L27.62-18.67Q31.10-18.67 33.05-16.82L33.05-16.82L33.05-16.82Q34.99-14.98 34.99-11.76L34.99-11.76L34.99-11.76Q34.99-6.29 32.09-2.93L32.09-2.93L32.09-2.93Q29.18 0.43 23.71 0.43L23.71 0.43zM21.60-4.51L21.60-4.51L21.60-4.51Q21.60-0.67 23.83-0.67L23.83-0.67L23.83-0.67Q26.06-0.67 27.82-4.54L27.82-4.54L27.82-4.54Q29.57-8.40 29.57-13.73L29.57-13.73L29.57-13.73Q29.57-17.76 27.38-17.76L27.38-17.76L27.38-17.76Q25.20-17.76 23.40-14.09L23.40-14.09L23.40-14.09Q21.60-10.42 21.60-4.51" fill="#0b1108" stroke="none" stroke-width="none" transform="translate(-68.25502967834473,11.302151746749878)" style="fill: rgb(11, 17, 8); animation-play-state: running; animation-delay: 0s;"></path></g><g class="path" style="transform-origin: -20.5451px 2.18213px; animation: 1s linear -0.4125s infinite normal forwards running breath-9a2c57a6-5f76-494a-9614-7c58de73dac9; transform: scale(0.91);"><path d="M54.29 0.43L54.29 0.43L54.29 0.43Q50.06 0.43 49.68-3.26L49.68-3.26L49.68-3.26Q47.57 0.43 44.35 0.43L44.35 0.43L44.35 0.43Q41.14 0.43 39.24-1.51L39.24-1.51L39.24-1.51Q37.34-3.46 37.34-6.96L37.34-6.96L37.34-6.96Q37.34-12.43 40.03-15.55L40.03-15.55L40.03-15.55Q42.72-18.67 46.99-18.67L46.99-18.67L46.99-18.67Q50.50-18.67 51.65-15.36L51.65-15.36L51.65-15.36Q51.89-16.80 52.18-18.24L52.18-18.24L52.18-18.24Q55.73-18.24 57.46-18.53L57.46-18.53L58.08-18.67L54.77-0.53L54.77-0.53Q56.21-0.67 57.17-1.87L57.17-1.87L57.89-1.30L57.89-1.30Q56.45 0.43 54.29 0.43zM42.77-4.51L42.77-4.51Q42.77-2.35 43.32-1.51L43.32-1.51L43.32-1.51Q43.87-0.67 45.02-0.67L45.02-0.67L45.02-0.67Q46.18-0.67 47.38-1.92L47.38-1.92L47.38-1.92Q48.96-3.55 49.92-6.05L49.92-6.05L49.92-6.05Q50.06-6.67 50.47-9.05L50.47-9.05L50.47-9.05Q50.88-11.42 51.17-12.96L51.17-12.96L51.17-12.96Q51.02-14.78 50.16-16.13L50.16-16.13L50.16-16.13Q49.30-17.47 48-17.47L48-17.47L48-17.47Q45.65-17.47 44.21-13.27L44.21-13.27L44.21-13.27Q42.77-9.07 42.77-4.51L42.77-4.51" fill="#0b1108" stroke="none" stroke-width="none" transform="translate(-68.25502967834473,11.302151746749878)" style="fill: rgb(20, 25, 3); animation-play-state: running; animation-delay: 0s;"></path></g><g class="path" style="transform-origin: 3.19497px -4.03284px; animation: 1s linear -0.33s infinite normal forwards running breath-9a2c57a6-5f76-494a-9614-7c58de73dac9; transform: scale(0.91);"><path d="M77.23 0.43L77.23 0.43L77.23 0.43Q73.01 0.43 72.62-3.17L72.62-3.17L72.62-3.17Q70.51 0.43 67.25 0.43L67.25 0.43L67.25 0.43Q63.98 0.43 62.26-1.42L62.26-1.42L62.26-1.42Q60.53-3.26 60.53-6.48L60.53-6.48L60.53-6.48Q60.53-12.14 63.22-15.41L63.22-15.41L63.22-15.41Q65.90-18.67 70.18-18.67L70.18-18.67L70.18-18.67Q72.62-18.67 73.97-17.18L73.97-17.18L73.97-17.18Q74.54-16.42 74.69-16.03L74.69-16.03L77.28-30.14L77.28-30.14Q75.84-30 74.88-28.80L74.88-28.80L74.16-29.38L74.16-29.38Q75.60-31.10 77.78-31.10L77.78-31.10L77.78-31.10Q79.97-31.10 81.17-30L81.17-30L81.17-30Q82.37-28.90 82.37-26.88L82.37-26.88L82.37-26.88Q82.37-26.50 82.27-25.63L82.27-25.63L82.27-25.63Q79.92-12.43 77.71-0.53L77.71-0.53L77.71-0.53Q79.15-0.67 80.11-1.87L80.11-1.87L80.83-1.30L80.83-1.30Q79.39 0.43 77.23 0.43zM65.95-4.51L65.95-4.51Q65.95-2.30 66.41-1.49L66.41-1.49L66.41-1.49Q66.86-0.67 67.85-0.67L67.85-0.67L67.85-0.67Q68.83-0.67 69.74-1.34L69.74-1.34L69.74-1.34Q70.66-2.02 71.28-3.07L71.28-3.07L71.28-3.07Q72.43-4.85 72.91-6.10L72.91-6.10L74.30-13.68L74.30-13.68Q74.21-15.22 73.30-16.49L73.30-16.49L73.30-16.49Q72.38-17.76 70.18-17.76L70.18-17.76L70.18-17.76Q68.64-17.76 67.30-13.25L67.30-13.25L67.30-13.25Q65.95-8.74 65.95-4.51L65.95-4.51" fill="#0b1108" stroke="none" stroke-width="none" transform="translate(-68.25502967834473,11.302151746749878)" style="fill: rgb(11, 4, 10); animation-play-state: running; animation-delay: 0s;"></path></g><g class="path" style="transform-origin: 20.085px 2.18214px; animation: 1s linear -0.2475s infinite normal forwards running breath-9a2c57a6-5f76-494a-9614-7c58de73dac9; transform: scale(0.91);"><path d="M92.35-1.30L92.35-1.30Q90.91 0.43 88.75 0.43L88.75 0.43L88.75 0.43Q86.59 0.43 85.37-0.67L85.37-0.67L85.37-0.67Q84.14-1.78 84.14-3.55L84.14-3.55L84.14-3.55Q84.14-4.18 84.91-8.78L84.91-8.78L86.50-17.38L84.48-17.38L84.58-18.24L86.64-18.24L86.64-18.24Q90.19-18.24 91.87-18.53L91.87-18.53L92.54-18.67L89.23-0.53L89.23-0.53Q90.67-0.67 91.63-1.87L91.63-1.87L92.35-1.30" fill="#0b1108" stroke="none" stroke-width="none" transform="translate(-68.25502967834473,11.302151746749878)" style="fill: rgb(0, 0, 0); animation-play-state: running; animation-delay: 0s;"></path></g><g class="path" style="transform-origin: 22.345px -14.4478px; animation: 1s linear -0.165s infinite normal forwards running breath-9a2c57a6-5f76-494a-9614-7c58de73dac9; transform: scale(0.91);"><path d="M88.13-23.28L88.13-23.28L88.13-23.28Q87.12-24.29 87.12-25.73L87.12-25.73L87.12-25.73Q87.12-27.17 88.13-28.20L88.13-28.20L88.13-28.20Q89.14-29.23 90.58-29.23L90.58-29.23L90.58-29.23Q92.02-29.23 93.05-28.20L93.05-28.20L93.05-28.20Q94.08-27.17 94.08-25.73L94.08-25.73L94.08-25.73Q94.08-24.29 93.05-23.28L93.05-23.28L93.05-23.28Q92.02-22.27 90.58-22.27L90.58-22.27L90.58-22.27Q89.14-22.27 88.13-23.28" fill="#0b1108" stroke="none" stroke-width="none" transform="translate(-68.25502967834473,11.302151746749878)" style="fill: rgb(8, 17, 17); animation-play-state: running; animation-delay: 0s;"></path></g><g class="path" style="transform-origin: 37.7499px 2.18216px; animation: 1s linear -0.0825s infinite normal forwards running breath-9a2c57a6-5f76-494a-9614-7c58de73dac9; transform: scale(0.91);"><path d="M113.66-0.53L113.66-0.53L113.66-0.53Q114.82-0.53 116.06-1.87L116.06-1.87L116.78-1.30L116.78-1.30Q116.45-0.62 115.30-0.10L115.30-0.10L115.30-0.10Q114.14 0.43 112.75 0.43L112.75 0.43L112.75 0.43Q108.38 0.43 108.38-3.50L108.38-3.50L108.38-3.50Q108.38-5.18 109.25-9.50L109.25-9.50L109.25-9.50Q110.11-13.82 110.11-15.17L110.11-15.17L110.11-15.17Q110.11-17.23 108.14-17.23L108.14-17.23L108.14-17.23Q106.56-17.23 105.10-15.17L105.10-15.17L105.10-15.17Q103.63-13.10 102.67-9.50L102.67-9.50L101.04-0.53L101.04-0.53Q102.53-0.67 103.49-1.87L103.49-1.87L104.21-1.30L104.21-1.30Q102.77 0.43 100.61 0.43L100.61 0.43L100.61 0.43Q98.45 0.43 97.22-0.67L97.22-0.67L97.22-0.67Q96-1.78 96-3.55L96-3.55L96-3.55Q96-4.22 96.77-8.83L96.77-8.83L98.35-17.71L98.35-17.71Q96.91-17.57 95.95-16.37L95.95-16.37L95.23-16.94L95.23-16.94Q96.67-18.67 98.86-18.67L98.86-18.67L98.86-18.67Q101.04-18.67 102.24-17.57L102.24-17.57L102.24-17.57Q103.44-16.46 103.44-14.45L103.44-14.45L103.44-14.16L103.44-14.16Q105.41-18.67 109.58-18.67L109.58-18.67L109.58-18.67Q112.42-18.67 114-17.06L114-17.06L114-17.06Q115.58-15.46 115.58-12.62L115.58-12.62L115.58-12.62Q115.58-11.14 114.67-6.89L114.67-6.89L114.67-6.89Q113.76-2.64 113.66-0.53" fill="#0b1108" stroke="none" stroke-width="none" transform="translate(-68.25502967834473,11.302151746749878)" style="fill: rgb(11, 17, 8); animation-play-state: running; animation-delay: 0s;"></path></g><g class="path" style="transform-origin: 60.4799px 6.38214px; animation: 1s linear 0s infinite normal forwards running breath-9a2c57a6-5f76-494a-9614-7c58de73dac9; transform: scale(0.91);"><path d="M134.83 5.23L134.83 5.23L134.83 5.23Q136.56 5.23 137.81 3.89L137.81 3.89L138.48 4.46L138.48 4.46Q137.33 6.10 134.83 6.10L134.83 6.10L134.83 6.10Q133.78 6.10 132.67 5.86L132.67 5.86L132.67 5.86Q129.41 8.83 124.32 8.83L124.32 8.83L124.32 8.83Q121.30 8.83 119.64 7.80L119.64 7.80L119.64 7.80Q117.98 6.77 117.98 5.11L117.98 5.11L117.98 5.11Q117.98 3.46 119.02 2.47L119.02 2.47L119.02 2.47Q120.05 1.49 122.69 1.49L122.69 1.49L122.69 1.49Q125.33 1.49 129.65 3.65L129.65 3.65L131.14-4.32L131.14-4.32Q128.98-0.34 125.57-0.34L125.57-0.34L125.57-0.34Q119.04-0.34 119.04-6.77L119.04-6.77L119.04-6.77Q119.04-12.14 121.75-15.41L121.75-15.41L121.75-15.41Q124.46-18.67 128.69-18.67L128.69-18.67L128.69-18.67Q131.14-18.67 132.48-17.18L132.48-17.18L132.48-17.18Q132.86-16.75 133.25-15.89L133.25-15.89L133.68-18.24L133.68-18.24Q137.23-18.24 138.86-18.53L138.86-18.53L139.49-18.67L136.32-0.96L136.32-0.96Q135.60 2.78 133.44 5.09L133.44 5.09L133.44 5.09Q134.06 5.23 134.83 5.23zM124.46-5.28L124.46-5.28Q124.46-3.07 124.90-2.33L124.90-2.33L124.90-2.33Q125.33-1.58 126.53-1.58L126.53-1.58L126.53-1.58Q127.73-1.58 128.98-2.88L128.98-2.88L128.98-2.88Q130.22-4.18 130.78-5.30L130.78-5.30L130.78-5.30Q131.33-6.43 131.71-7.49L131.71-7.49L132.72-13.01L132.72-13.34L132.72-13.34Q132.72-17.76 128.69-17.76L128.69-17.76L128.69-17.76Q127.15-17.76 125.81-13.58L125.81-13.58L125.81-13.58Q124.46-9.41 124.46-5.28L124.46-5.28zM124.13 7.87L124.13 7.87L124.13 7.87Q127.97 7.87 129.31 4.56L129.31 4.56L128.64 4.22L128.64 4.22Q128.06 3.94 127.94 3.86L127.94 3.86L127.94 3.86Q127.82 3.79 127.30 3.55L127.30 3.55L127.30 3.55Q126.77 3.31 126.53 3.24L126.53 3.24L126.53 3.24Q126.29 3.17 125.78 2.98L125.78 2.98L125.78 2.98Q125.28 2.78 124.94 2.71L124.94 2.71L124.94 2.71Q124.61 2.64 124.18 2.54L124.18 2.54L124.18 2.54Q123.46 2.40 122.06 2.40L122.06 2.40L122.06 2.40Q120.67 2.40 119.83 3.07L119.83 3.07L119.83 3.07Q118.99 3.74 118.99 5.04L118.99 5.04L118.99 5.04Q118.99 6.34 120.38 7.10L120.38 7.10L120.38 7.10Q121.78 7.87 124.13 7.87" fill="#0b1108" stroke="none" stroke-width="none" transform="translate(-68.25502967834473,11.302151746749878)" style="fill: rgb(20, 25, 3); animation-play-state: running; animation-delay: 0s;"></path></g></g>
</g>
<style id="breath-9a2c57a6-5f76-494a-9614-7c58de73dac9" data-anikit="">@keyframes breath-9a2c57a6-5f76-494a-9614-7c58de73dac9
{
  0% {
    animation-timing-function: cubic-bezier(0.9647,0.2413,-0.0705,0.7911);
    transform: scale(0.9099999999999999);
  }
  51% {
    animation-timing-function: cubic-bezier(0.9226,0.2631,-0.0308,0.7628);
    transform: scale(1.02994);
  }
  100% {
    transform: scale(0.9099999999999999);
  }
}</style><style id="breath-9a2c57a6-5f76-494a-9614-7c58de73dac9" data-anikit="">@keyframes breath-9a2c57a6-5f76-494a-9614-7c58de73dac9
{
  0% {
    animation-timing-function: cubic-bezier(0.9647,0.2413,-0.0705,0.7911);
    transform: scale(0.9099999999999999);
  }
  51% {
    animation-timing-function: cubic-bezier(0.9226,0.2631,-0.0308,0.7628);
    transform: scale(1.02994);
  }
  100% {
    transform: scale(0.9099999999999999);
  }
}</style></svg>